<svg width="169" height="36" viewBox="0 0 169 36" fill="none" xmlns="http://www.w3.org/2000/svg">
<path d="M49.7169 11.5045C46.5381 10.2593 43.1533 9.62335 39.7395 9.62998C32.0886 9.62998 26.7185 14.7491 26.7185 22.8147C26.7185 30.972 31.3779 35.9994 39.6362 35.9994C43.0996 36.0231 46.531 35.3344 49.7169 33.9759C50.1242 33.8274 50.4701 33.5469 50.6995 33.1793C50.929 32.8115 51.0289 32.3776 50.9836 31.9466V13.5338C50.9836 12.3644 50.5308 11.8083 49.7169 11.5045ZM44.3986 28.0713C44.3986 28.8338 43.9917 29.1892 43.1322 29.4414C42.0141 29.7596 40.8558 29.9141 39.6934 29.9001C36.4497 29.9001 33.3894 27.974 33.3894 22.8033C33.3894 17.6325 36.4268 15.7122 39.6934 15.7122C40.8556 15.6962 42.0137 15.8488 43.1322 16.165C43.9917 16.4173 44.3986 16.7726 44.3986 17.5351V28.0713Z" fill="white"/>
<path d="M7.06131 18.0929C7.06131 16.5451 8.63156 15.5592 11.3194 15.5592C13.9041 15.5592 16.3856 16.419 18.9702 17.8521C19.1991 17.9873 19.461 18.0569 19.7268 18.0528C19.9636 18.0497 20.1954 17.9824 20.3972 17.8584C20.599 17.7342 20.7633 17.5577 20.8729 17.3477L22.4432 13.9999C22.5713 13.7311 22.6398 13.4378 22.6438 13.14C22.6443 12.9316 22.588 12.7271 22.481 12.5483C22.3739 12.3695 22.2202 12.2233 22.0363 12.1254C18.8326 10.3356 15.2181 9.41099 11.5486 9.44257C4.76317 9.44257 0.40765 13.0884 0.40765 18.563C0.40765 29.3056 16.718 25.1438 16.718 32.596C16.7234 33.2336 16.6207 33.8675 16.4142 34.4707C16.3835 34.5691 16.3661 34.6712 16.3627 34.7744C16.3578 34.8735 16.3746 34.9725 16.4119 35.0645C16.4493 35.1564 16.5062 35.2393 16.5788 35.3069C16.6514 35.3745 16.7379 35.4256 16.8322 35.4564C16.9265 35.4871 17.0263 35.4971 17.1249 35.4852H21.681C22.4432 35.4852 22.7469 35.2329 22.9991 34.4707C23.2809 33.5417 23.4183 32.575 23.406 31.6043C23.3775 20.0706 7.06131 22.8394 7.06131 18.0929Z" fill="white"/>
<path d="M68.6108 9.62993C65.1373 9.65384 61.6932 10.2703 58.4269 11.4529C58.0198 11.6014 57.6739 11.8818 57.4445 12.2495C57.215 12.6172 57.1149 13.051 57.1604 13.4821V34.4574C57.152 34.5928 57.1725 34.7283 57.2204 34.8553C57.2685 34.9821 57.3429 35.0974 57.4388 35.1934C57.5348 35.2893 57.6499 35.3638 57.7768 35.4118C57.9037 35.4599 58.0394 35.4804 58.1747 35.472H62.7594C62.8949 35.4804 63.0305 35.4599 63.1574 35.4118C63.2843 35.3638 63.3995 35.2893 63.4954 35.1934C63.5913 35.0974 63.6657 34.9821 63.7138 34.8553C63.7618 34.7283 63.7823 34.5928 63.7739 34.4574V17.4319C63.7739 16.6751 64.175 16.3197 64.9889 16.1134C66.2153 15.8163 67.4755 15.6814 68.7369 15.7121C71.4706 15.7121 73.6484 16.979 73.6484 20.0172V34.4574C73.64 34.5928 73.6605 34.7283 73.7084 34.8553C73.7566 34.9821 73.8309 35.0974 73.9269 35.1934C74.0228 35.2893 74.1379 35.3638 74.2648 35.4118C74.3917 35.4599 74.5274 35.4804 74.6627 35.472H79.2476C79.3824 35.4796 79.5175 35.4584 79.6437 35.41C79.7699 35.3615 79.8843 35.2869 79.9796 35.1911C80.0749 35.0953 80.1488 34.9804 80.1964 34.8539C80.2442 34.7275 80.2645 34.5922 80.2563 34.4574V19.1573C80.2104 12.972 76.4108 9.62993 68.6108 9.62993Z" fill="white"/>
<path d="M97.6388 9.62993C90.0396 9.62993 85.0766 15.1503 85.0766 22.8147C85.0766 30.479 90.0396 35.9994 97.9941 35.9994C105.594 35.9994 110.557 30.479 110.557 22.8147C110.557 15.1503 105.594 9.62993 97.6388 9.62993ZM97.9941 29.8999C94.2461 29.8999 91.7646 27.4637 91.7646 22.8031C91.7646 18.1427 94.2461 15.7121 97.6388 15.7121C101.387 15.7121 103.868 18.1427 103.868 22.8031C103.868 27.4637 101.387 29.8999 97.9941 29.8999Z" fill="white"/>
<path d="M138.77 10.1328H134.214C133.654 10.1328 133.2 10.5871 133.2 11.1475V34.4558C133.2 35.0161 133.654 35.4705 134.214 35.4705H138.77C139.331 35.4705 139.785 35.0161 139.785 34.4558V11.1475C139.785 10.5871 139.331 10.1328 138.77 10.1328Z" fill="white"/>
<path d="M129.045 0.356025C128.001 0.109644 126.931 -0.0096882 125.858 0.000614233C119.554 0.000614233 115.473 3.34839 115.473 10.6458V34.4586C115.465 34.5935 115.486 34.7287 115.533 34.8551C115.581 34.9816 115.655 35.0965 115.75 35.1923C115.845 35.2883 115.96 35.3629 116.086 35.4112C116.212 35.4596 116.347 35.4808 116.482 35.4733H120.993C121.128 35.4817 121.263 35.4612 121.39 35.413C121.517 35.365 121.632 35.2906 121.728 35.1946C121.824 35.0988 121.899 34.9835 121.947 34.8565C121.995 34.7297 122.015 34.594 122.007 34.4586V15.7133H128.437C128.573 15.7257 128.711 15.7079 128.839 15.6612C128.968 15.6146 129.085 15.5402 129.182 15.4434C129.278 15.3466 129.353 15.2298 129.399 15.1011C129.446 14.9724 129.464 14.835 129.451 14.6987V11.2019C129.469 11.0621 129.455 10.9203 129.411 10.7866C129.367 10.6529 129.294 10.5306 129.196 10.4286C129.099 10.3266 128.981 10.2475 128.85 10.1968C128.718 10.1461 128.577 10.1252 128.437 10.1356H122.007V9.56239C122.007 6.77641 123.222 5.35474 126.019 5.35474C127.033 5.35474 128.122 5.6127 128.5 5.6127C129.108 5.6127 129.36 5.2573 129.463 4.64964L129.973 2.01272C130.024 1.79605 130.056 1.57554 130.07 1.35348C130.059 0.808879 129.755 0.510805 129.045 0.356025Z" fill="white"/>
<path d="M3.43858 28.9925C1.36397 28.9925 0 30.3052 0 32.4834C0 34.6618 1.36972 35.9803 3.59906 35.9803C5.67368 35.9803 7.03766 34.6159 7.03766 32.4834C7.03766 30.3509 5.66794 28.9925 3.43858 28.9925Z" fill="#F5F5F5"/>
<path d="M136.42 0.0102615C134.34 0.0102615 132.982 1.32875 132.982 3.50709C132.982 5.68544 134.352 7.00389 136.581 7.00389C138.656 7.00389 140.02 5.63385 140.02 3.50709C140.02 1.38034 138.644 0.0102615 136.42 0.0102615Z" fill="#F5F5F5"/>
<path d="M156.082 9.24251C148.483 9.24251 143.52 14.7629 143.52 22.4273C143.52 30.0916 148.483 35.612 156.438 35.612C164.037 35.612 169 30.0916 169 22.4273C169 14.7629 164.037 9.24251 156.082 9.24251ZM156.438 29.5125C152.69 29.5125 150.208 27.0763 150.208 22.4157C150.208 17.7553 152.69 15.3247 156.082 15.3247C159.83 15.3247 162.312 17.7553 162.312 22.4157C162.312 27.0763 159.83 29.5125 156.438 29.5125Z" fill="white"/>
</svg>
